<svg width="879" height="600" viewBox="0 0 879 600" fill="none" xmlns="http://www.w3.org/2000/svg">
<g clip-path="url(#clip0_1_3)">
<path d="M540.228 200.22C561.19 200.22 578.183 182.764 578.183 161.231C578.183 139.698 561.19 122.242 540.228 122.242C519.266 122.242 502.273 139.698 502.273 161.231C502.273 182.764 519.266 200.22 540.228 200.22Z" fill="#F2F2F2"/>
<path d="M314.606 122.242C332.075 122.242 346.235 107.695 346.235 89.751C346.235 71.8067 332.075 57.26 314.606 57.26C297.138 57.26 282.977 71.8067 282.977 89.751C282.977 107.695 297.138 122.242 314.606 122.242Z" fill="#F2F2F2"/>
<path d="M211.284 429.823C228.753 429.823 242.913 415.276 242.913 397.332C242.913 379.388 228.753 364.841 211.284 364.841C193.816 364.841 179.655 379.388 179.655 397.332C179.655 415.276 193.816 429.823 211.284 429.823Z" fill="#F2F2F2"/>
<path d="M179.136 447.152C188.298 458.307 198.209 538.728 208.783 548.454L704.919 549.537C715.494 539.811 725.404 459.39 734.566 448.235L179.136 447.152H179.136Z" fill="#E6E6E6"/>
<path d="M333.792 352.685V463.761H409.544V352.685C409.547 351.045 408.508 349.595 406.982 349.111C406.632 348.992 406.265 348.933 405.896 348.938H337.451C335.434 348.934 333.796 350.61 333.792 352.681V352.685H333.792ZM363.355 390.851C363.396 386.263 367.05 382.578 371.516 382.621C375.924 382.663 379.488 386.323 379.528 390.851V403.739C379.507 408.327 375.869 412.028 371.403 412.006C366.967 411.985 363.376 408.296 363.355 403.739V390.851Z" fill="#3F3D56"/>
<path d="M214.624 185.335V388.143C214.628 393.525 218.874 397.886 224.113 397.891H516.683C521.922 397.886 526.168 393.525 526.172 388.143V185.335C526.159 179.959 521.917 175.605 516.683 175.598H224.113C218.879 175.605 214.637 179.959 214.624 185.335Z" fill="#3F3D56"/>
<path d="M221.488 187.858V385.641C221.492 388.517 223.76 390.846 226.559 390.851H514.247C517.046 390.846 519.314 388.517 519.319 385.641V187.858C519.318 184.979 517.05 182.644 514.247 182.638H226.559C223.756 182.644 221.488 184.979 221.488 187.858Z" fill="#4C56C0"/>
<path d="M280.149 475.544C280.742 476.308 281.644 476.751 282.595 476.746H453.751C455.491 476.744 456.899 475.294 456.897 473.507C456.897 473.285 456.874 473.064 456.83 472.847L454.173 459.883C453.949 458.809 453.211 457.925 452.212 457.533C451.856 457.39 451.477 457.316 451.094 457.317H285.242C284.859 457.316 284.48 457.39 284.124 457.533C283.125 457.925 282.387 458.809 282.163 459.883L279.506 472.847C279.315 473.8 279.551 474.79 280.149 475.544H280.149Z" fill="#3F3D56"/>
<path d="M235.809 209.883H504.998C505.589 209.87 506.058 209.367 506.045 208.76C506.033 208.171 505.571 207.697 504.998 207.684H235.809C235.217 207.697 234.749 208.2 234.761 208.808C234.774 209.396 235.235 209.871 235.809 209.883Z" fill="#3F3D56"/>
<path d="M839.168 424.761C839.147 424.707 839.136 424.664 839.115 424.621C838.708 423.494 838.233 422.394 837.692 421.328C834.624 415.404 837.871 406.307 834.413 396.256C828.825 379.967 822.014 370.361 812.03 361.751C811.735 361.491 811.44 361.242 811.134 360.982L811.123 360.971C804.46 355.35 796.427 350.097 786.453 343.556C784.376 342.191 777.196 346.133 777.365 339.375C777.554 331.87 777.755 324.094 774.17 319.242L773.938 318.928L773.569 318.83C761.279 316.333 748.743 315.341 736.225 315.874H736.215C730.9 316.076 725.622 316.872 720.474 318.245C720.095 318.354 719.715 318.462 719.346 318.592C719.061 318.668 718.777 318.765 718.492 318.863L718.26 318.949L718.081 319.123C714.612 322.686 713.811 329.076 713.431 335.736V335.747C713.358 336.96 713.294 338.173 713.242 339.386C712.946 345.863 697.733 351.094 691.934 354.029C681.043 359.552 682.686 372.422 682.559 372.422C682.559 372.422 664.248 411.039 664.027 450.148C664.016 452.325 664.002 454.512 663.984 456.711C663.858 474.928 663.521 493.458 662.192 510.343C661.612 517.599 660.864 524.541 659.862 531.029C654.991 562.621 632.925 536.39 622.371 557.411C622.718 559.478 623.302 561.496 624.111 563.422C625.323 564.159 626.567 564.873 627.801 565.588C633.273 568.718 638.846 571.639 644.522 574.35C644.838 574.501 645.154 574.653 645.471 574.794C655.881 579.742 666.611 583.947 677.585 587.379C679.725 588.05 681.865 588.689 684.027 589.296C703.145 594.717 722.831 597.746 742.657 598.317C742.737 598.308 742.818 598.305 742.899 598.307C766.346 597.641 789.639 594.192 812.315 588.029C812.631 587.942 812.947 587.855 813.264 587.769C814.75 587.357 816.226 586.946 817.702 586.512C830.753 582.698 843.538 577.987 855.974 572.411C855.986 572.887 856.032 573.361 856.111 573.83C856.121 573.983 856.143 574.135 856.174 574.285C856.195 574.112 856.216 573.938 856.227 573.765C856.29 573.256 856.343 572.736 856.395 572.216C862.848 507.581 849.448 452.704 839.168 424.762V424.761Z" fill="#CCCCCC"/>
<path d="M745.837 310.26C779.65 310.26 807.061 282.102 807.061 247.368C807.061 212.633 779.65 184.475 745.837 184.475C712.023 184.475 684.612 212.633 684.612 247.368C684.612 282.102 712.023 310.26 745.837 310.26Z" fill="#FFB6B6"/>
<path d="M750.369 311.393C759.703 309.68 768.878 307.151 777.793 303.833C786.547 300.105 804.026 280.676 807.959 270.302C810.881 262.594 811.549 251.337 811.595 243.252C811.792 221.599 803.042 200.876 787.518 186.227C784.513 183.156 780.757 180.977 776.645 179.919C776.286 179.852 775.919 179.802 775.553 179.769C769.781 179.384 764.252 177.235 759.678 173.599C758.784 172.858 757.839 172.183 756.851 171.581C751.925 168.76 746.419 167.177 740.783 166.96C731.629 166.309 719.488 171.203 704.699 181.513C697.269 186.693 688.161 187.179 681.054 187.024C680.246 187.025 679.5 187.467 679.094 188.184C676.723 191.562 673.196 193.893 669.22 194.709C666.804 195.307 664.904 199.285 662.671 204.424C662.164 205.591 661.573 206.952 661.121 207.799L660.776 206.415L659.694 208.252C654.124 217.702 657.067 230.001 666.266 235.722C668.738 237.259 671.513 238.212 674.388 238.512C676.967 238.691 679.557 238.6 682.117 238.239C683.679 238.073 685.293 237.903 686.866 237.869C697.191 237.971 706.705 243.638 711.921 252.793C714.089 256.536 718.8 257.765 722.444 255.538C723.017 255.189 723.542 254.764 724.008 254.275C726.736 251.059 730.823 249.419 734.951 249.882C736.787 250.497 738.362 251.742 739.411 253.408C740.652 255.25 742.398 256.671 744.427 257.489C751.224 259.524 754.398 273.931 754.471 286.455C754.541 298.528 751.911 307.798 748.077 308.997C745.124 309.92 744.822 310.209 744.707 310.8L744.605 311.329L745.031 311.72C746.812 312.007 748.633 311.895 750.369 311.393H750.369Z" fill="#2F2E41"/>
<path d="M533.68 505.837C545.403 505.837 554.906 502.721 554.906 498.878C554.906 495.035 545.403 491.919 533.68 491.919C521.958 491.919 512.455 495.035 512.455 498.878C512.455 502.721 521.958 505.837 533.68 505.837Z" fill="#3F3D56"/>
<path d="M533.68 501.198C545.403 501.198 554.906 498.082 554.906 494.239C554.906 490.396 545.403 487.28 533.68 487.28C521.958 487.28 512.455 490.396 512.455 494.239C512.455 498.082 521.958 501.198 533.68 501.198Z" fill="#3F3D56"/>
<path d="M529.949 498.902L533.111 498.854L532.239 438.184C531.981 418.038 542.167 399.271 558.986 388.906L619.355 351.838L617.732 349.049L557.363 386.118C539.576 397.079 528.803 416.927 529.076 438.232L529.949 498.902V498.902Z" fill="#3F3D56"/>
<path d="M617.788 379.188H617.788C613.548 379.188 610.11 375.657 610.11 371.302V322.127C610.11 317.771 613.548 314.24 617.788 314.24H617.788C622.028 314.24 625.465 317.771 625.465 322.127V371.302C625.465 375.657 622.028 379.188 617.788 379.188Z" fill="#4C56C0"/>
<path d="M517.387 416.483C520.047 426.479 530.092 432.366 539.822 429.634C540.86 429.342 541.87 428.957 542.842 428.483L588.37 476.006L595.414 442.122L551.1 402.188C546.153 393.094 534.965 389.841 526.111 394.923C518.703 399.175 515.096 408.089 517.387 416.483H517.387V416.483Z" fill="#FFB6B6"/>
<path d="M755.201 366.861L754.912 366.696L721.716 354.969C713.19 351.956 703.816 352.851 695.976 357.424C694.177 358.47 692.484 359.699 690.925 361.093L690.914 361.095C685.713 365.711 682.128 371.952 680.71 378.862L663.274 463.899L628.216 444.491L613.931 440.986L600.927 427.58L568.453 413.998L566.651 416.208L550.311 436.271L549.027 437.847L585.006 491.317L601.133 493.119L605.65 501.375L605.969 501.526L619.19 507.647L675.577 533.743L702.882 512.276L707.155 508.907C742.48 475.287 758.993 448.242 765.888 427.643C769.537 416.762 770.497 407.696 770.136 400.386C769.013 377.797 755.761 367.294 755.201 366.861H755.201Z" fill="#CCCCCC"/>
<path d="M786.409 387.585H770.594C724.885 387.585 687.831 425.649 687.831 472.603V472.603C673.078 491.344 673.982 514.877 687.831 542.372L642.5 522.959C636.045 520.211 628.644 523.359 625.969 529.99C623.303 536.601 626.34 544.182 632.764 546.95L687.831 570.533V574.924C687.831 588.695 698.699 599.859 712.105 599.859H844.898C858.304 599.859 869.172 588.695 869.172 574.924C879.016 537.822 885.179 501.84 869.172 472.603C869.172 425.649 832.117 387.585 786.409 387.585V387.585Z" fill="#3F3D56"/>
<path d="M407.385 316.105C409.714 316.105 411.603 314.165 411.603 311.773C411.603 309.38 409.714 307.44 407.385 307.44C405.056 307.44 403.168 309.38 403.168 311.773C403.168 314.165 405.056 316.105 407.385 316.105Z" fill="#F2F2F2"/>
<path d="M422.146 316.105C424.475 316.105 426.363 314.165 426.363 311.773C426.363 309.38 424.475 307.44 422.146 307.44C419.816 307.44 417.928 309.38 417.928 311.773C417.928 314.165 419.816 316.105 422.146 316.105Z" fill="#F2F2F2"/>
<path d="M436.906 316.105C439.235 316.105 441.123 314.165 441.123 311.773C441.123 309.38 439.235 307.44 436.906 307.44C434.577 307.44 432.689 309.38 432.689 311.773C432.689 314.165 434.577 316.105 436.906 316.105Z" fill="#F2F2F2"/>
<path d="M301.175 266.323L332.653 266.805C333.527 266.774 334.21 266.022 334.18 265.125C334.151 264.271 333.484 263.586 332.653 263.556L301.175 263.074C300.301 263.105 299.618 263.858 299.648 264.755C299.677 265.609 300.344 266.294 301.175 266.323Z" fill="white"/>
<path d="M339.1 300.326C342.825 303.28 348.813 300.695 349.852 296.133C351.064 290.817 346.544 285.813 341.414 285.929C335.709 286.057 331.677 290.986 331.059 296.534C330.575 301.649 332.606 306.675 336.473 309.936C340.587 313.634 346.222 314.986 351.505 313.543C353.453 312.953 352.624 309.817 350.664 310.41C343.721 312.249 336.598 308.151 334.497 301.108C333.505 297.276 334.442 292.49 337.919 290.297C341.045 288.327 345.469 289.042 346.661 292.991C347.368 295.07 346.3 297.345 344.276 298.071C343.067 298.505 341.728 298.299 340.696 297.521C339.941 297.074 338.977 297.334 338.533 298.103C338.114 298.881 338.363 299.86 339.1 300.326V300.326V300.326Z" fill="white"/>
<path d="M371.371 285.664C368.195 289.316 365.352 293.258 362.875 297.442L359.179 287.406C358.466 285.469 355.407 286.309 356.129 288.27C357.7 292.536 359.271 296.801 360.842 301.067C359.033 304.506 357.469 308.074 356.162 311.745C355.463 313.712 358.518 314.56 359.212 312.609C360.124 310.062 361.168 307.567 362.34 305.135C363.779 309.043 365.219 312.951 366.658 316.858C367.371 318.796 370.43 317.956 369.708 315.995C367.907 311.105 366.106 306.215 364.305 301.325C366.929 296.54 370.048 292.06 373.607 287.961C374.961 286.407 372.731 284.101 371.371 285.664V285.664Z" fill="white"/>
<path d="M315.205 264.736L317.417 313.436C317.511 315.518 320.675 315.53 320.579 313.436L318.368 264.736C318.273 262.654 315.11 262.642 315.205 264.736V264.736V264.736Z" fill="white"/>
<path d="M393.223 290.112H385.256C385.236 288.468 385.215 286.824 385.182 285.182C385.141 283.094 381.978 283.087 382.02 285.182C382.052 286.825 382.084 288.469 382.116 290.112H375.291C374.418 290.143 373.734 290.896 373.764 291.793C373.793 292.646 374.46 293.331 375.291 293.361H382.18C382.194 294.052 382.207 294.742 382.221 295.433C382.176 298.63 382.31 301.826 382.62 305.007C383.296 310.114 386.665 315.918 392.422 315.416C394.436 315.241 394.454 311.99 392.422 312.167C387.227 312.62 385.735 306.348 385.54 302.242C385.399 299.287 385.339 296.324 385.297 293.361H393.223C394.096 293.33 394.779 292.577 394.749 291.68C394.72 290.827 394.053 290.142 393.223 290.112V290.112Z" fill="#F2F2F2"/>
<path d="M82.9438 441.434C81.919 441.438 80.8967 441.537 79.8892 441.73L63.1241 332.705L79.9197 227.748C82.2253 213.342 72.7257 199.743 58.7017 197.375C46.0458 195.238 33.7899 203 29.9645 215.575V215.575C23.6682 236.272 20.5525 257.85 20.7297 279.533L21.3155 351.111L66.0099 461.041C67.1298 470.651 75.6214 477.509 84.9764 476.359C94.3315 475.208 101.007 466.485 99.8876 456.875C98.8607 448.063 91.5832 441.431 82.9438 441.434V441.434V441.434Z" fill="#FFB8B8"/>
<path d="M52.2397 190.407C29.9013 190.446 11.8019 209.039 11.7649 231.986L19.9885 317.328L20.7265 324.974L21.1061 324.996L49.9835 326.47H49.9941L64.0058 327.184L66.4096 327.303L69.1614 317.328L92.7146 231.986C92.6906 209.033 74.5835 190.432 52.2397 190.407V190.407Z" fill="#E6E6E6"/>
<path d="M53.4838 600L40.1996 558.13C40.1996 558.13 15.8451 532.689 47.0842 465.152C47.7695 463.657 48.4864 462.151 49.235 460.613C50.5423 457.916 51.941 455.151 53.4311 452.317C55.6873 448.202 57.9752 443.946 60.5582 439.548L62.9199 439.982L65.155 440.383L72.7987 441.769H72.8092L183.501 461.806C183.501 461.806 181.466 471.14 180.37 481.158C179.495 489.379 179.21 497.697 181.276 501.217C185.747 509.079 179.705 530.328 179.705 530.328C179.705 530.328 180.043 532.387 180.612 536.025V536.037C181.171 539.578 181.951 544.603 182.837 550.689C182.879 551.101 182.932 551.513 182.995 551.925C184.397 561.78 186.073 574.224 187.571 587.599C188.034 591.66 188.477 595.809 188.899 600L53.4839 600H53.4838Z" fill="#2F2E41"/>
<path d="M21.9332 212.483C24.7128 204.608 31.2069 198.731 39.1621 196.891C44.9645 195.196 51.0034 194.518 57.0252 194.885C74.6533 195.599 70.2085 155.03 87.6638 157.657C87.6638 157.657 104.093 151.634 116.948 162.67C128.626 172.697 136.676 199.966 139.673 198.414C140.31 198.091 141.84 198.125 143.98 198.417C168.992 201.827 186.99 224.876 185.504 250.749L184.234 272.867C184.234 272.867 193.214 286.755 180.183 311.272L163.764 386.643C163.764 386.643 204.841 470.218 185.905 487.365C166.968 504.511 92.721 477.775 92.721 477.775C92.721 477.775 51.0847 464.553 42.3035 458.823C23.7549 446.718 47.4617 419.118 62.1191 420.419C62.9075 417.208 61.8694 413.815 59.4348 411.645C55.3837 408.987 59.9227 402.971 60.2644 402.42C59.8739 402.82 56.799 406.13 54.4564 399.161C52.1138 392.192 59.3371 383.418 59.3371 383.418L38.9359 338.295L22.8786 302.648L20.9262 298.537L24.2756 276.357L23.9622 275.691C16.8251 260.406 15.2456 243.002 19.509 226.625C21.0556 220.603 22.1688 215.115 21.9332 212.483L21.9332 212.483Z" fill="#E6E6E6"/>
<path d="M188.899 600H181.856C183.807 595.701 185.736 591.53 187.571 587.599C188.034 591.66 188.477 595.808 188.899 600Z" fill="#2F2E41"/>
<path d="M327.141 347.712C326.517 348.547 325.968 349.438 325.499 350.374L231.318 297.243L160.814 219.344C151.137 208.651 134.854 208.042 124.445 217.983C115.052 226.954 113.524 241.66 120.86 252.466L120.86 252.466C132.936 270.251 147.638 285.992 164.435 299.123L219.889 342.47L331.866 373.47C339.948 378.444 350.426 375.746 355.268 367.443C360.11 359.14 357.483 348.377 349.4 343.404C341.989 338.843 332.428 340.693 327.141 347.712H327.141Z" fill="#FFB8B8"/>
<path d="M199.659 326.653L227.617 293.151L229.174 291.278L171.907 211.555C169.432 209.575 166.735 207.906 163.876 206.581L163.868 206.574C143.521 197.074 119.53 206.316 110.282 227.218C102.519 244.763 107.514 265.49 122.349 277.289L139.063 288.055L199.408 326.947L199.659 326.653Z" fill="#E6E6E6"/>
<path d="M149.479 121.202C135.204 148.016 102.472 157.865 76.3689 143.201C50.2661 128.538 40.6777 94.9133 54.9525 68.0993C69.2274 41.2854 101.96 31.4357 128.063 46.0995C139.027 52.259 147.566 62.143 152.216 74.0587C152.463 74.692 152.685 75.3253 152.907 75.9839C158.115 90.866 156.868 107.327 149.479 121.202V121.202Z" fill="#FFB6B6"/>
<path d="M157.222 75.9839C154.904 69.3216 155.915 72.7921 153.573 66.1551C155.102 72.0321 152.685 75.3253 152.907 75.9839H88.7657V37.6819C107.557 30.0316 125.929 23.5213 137.026 37.6819C157.618 37.6829 174.311 54.8307 174.312 75.984L157.222 75.9839V75.9839Z" fill="#2F2E41"/>
<path d="M134.486 182.454C134.436 181.745 134.362 181.01 134.264 180.301C133.402 175.098 132.005 170.003 130.096 165.102C128.247 159.757 126.372 154.386 124.498 149.041C126.912 158.744 126.176 168.99 122.402 178.224C111.576 169.56 118.407 149.751 104.252 149.751C70.2213 149.751 35.2038 121.404 35.2038 86.4207C35.2038 51.4623 49.8026 25.3198 83.8336 25.3198C117.889 25.3198 145.509 41.3295 146.175 76.2879C104.252 86.4207 142.402 178.908 134.486 182.454V182.454Z" fill="#2F2E41"/>
<path d="M39.4563 81.0626C61.2473 81.0626 78.9125 62.9161 78.9125 40.5313C78.9125 18.1465 61.2473 0 39.4563 0C17.6652 0 0 18.1465 0 40.5313C0 62.9161 17.6652 81.0626 39.4563 81.0626Z" fill="#2F2E41"/>
<path d="M247.47 200.277C250.1 200.277 252.233 198.038 252.233 195.275C252.233 192.512 250.1 190.273 247.47 190.273C244.839 190.273 242.706 192.512 242.706 195.275C242.706 198.038 244.839 200.277 247.47 200.277Z" fill="#3F3D56"/>
<path d="M263.925 200.277C266.556 200.277 268.689 198.038 268.689 195.275C268.689 192.512 266.556 190.273 263.925 190.273C261.294 190.273 259.162 192.512 259.162 195.275C259.162 198.038 261.294 200.277 263.925 200.277Z" fill="#3F3D56"/>
<path d="M280.381 200.277C283.011 200.277 285.144 198.038 285.144 195.275C285.144 192.512 283.011 190.273 280.381 190.273C277.75 190.273 275.617 192.512 275.617 195.275C275.617 198.038 277.75 200.277 280.381 200.277Z" fill="#3F3D56"/>
<path d="M299.144 199.229C298.998 199.229 298.852 199.17 298.742 199.054L295.528 195.679C295.313 195.454 295.313 195.095 295.528 194.87L298.742 191.495C298.96 191.267 299.317 191.263 299.538 191.486C299.761 191.71 299.764 192.076 299.547 192.305L296.718 195.275L299.547 198.245C299.764 198.474 299.761 198.84 299.538 199.064C299.429 199.174 299.286 199.229 299.144 199.229V199.229Z" fill="#3F3D56"/>
<path d="M304.545 199.229C304.403 199.229 304.261 199.174 304.151 199.064C303.929 198.84 303.925 198.474 304.143 198.245L306.971 195.275L304.143 192.304C303.925 192.076 303.929 191.71 304.151 191.486C304.373 191.263 304.73 191.267 304.948 191.495L308.162 194.87C308.376 195.095 308.376 195.454 308.162 195.679L304.948 199.054C304.838 199.17 304.692 199.229 304.545 199.229L304.545 199.229Z" fill="#3F3D56"/>
<path d="M483.2 190.852H477.224C476.542 190.852 475.99 191.419 475.99 192.119V198.264C475.99 198.964 476.542 199.531 477.224 199.531H483.2C483.882 199.531 484.439 198.964 484.439 198.264V192.119C484.439 191.419 483.882 190.852 483.2 190.852Z" fill="#3F3D56"/>
<path d="M468.555 190.852H462.579C461.897 190.852 461.345 191.419 461.345 192.119V198.264C461.345 198.964 461.897 199.531 462.579 199.531H468.555C469.237 199.531 469.794 198.964 469.794 198.264V192.119C469.794 191.419 469.237 190.852 468.555 190.852Z" fill="#3F3D56"/>
<path d="M497.001 191.141H491.024C490.343 191.141 489.791 191.708 489.791 192.408V198.553C489.791 199.253 490.343 199.82 491.024 199.82H497.001C497.682 199.82 498.24 199.253 498.24 198.553V192.408C498.24 191.708 497.682 191.141 497.001 191.141Z" fill="#3F3D56"/>
<path d="M397.707 193.479H345.069C344.236 193.479 343.565 194.173 343.565 195.024C343.565 195.874 344.236 196.569 345.069 196.569H397.707C398.535 196.569 399.211 195.874 399.211 195.024C399.211 194.173 398.535 193.479 397.707 193.479Z" fill="#3F3D56"/>
</g>
<defs>
<clipPath id="clip0_1_3">
<rect width="879" height="600" fill="white"/>
</clipPath>
</defs>
</svg>
