<svg width="589" height="600" viewBox="0 0 589 600" fill="none" xmlns="http://www.w3.org/2000/svg">
<g clip-path="url(#clip0_1_51)">
<path d="M128.902 228.937C109.059 202.404 72.7424 196 54.696 209.475C36.6495 222.95 32.504 259.564 52.3466 286.097C70.7133 310.657 103.989 317.355 122.318 308.154C122.258 308.441 122.255 308.737 122.307 309.026L123.34 314.13C123.419 314.519 123.596 314.882 123.854 315.183C124.113 315.485 124.444 315.715 124.817 315.853C125.189 315.991 125.591 316.031 125.984 315.97C126.376 315.909 126.747 315.748 127.06 315.504L135.81 308.673C136.123 308.429 136.369 308.108 136.523 307.743C136.677 307.377 136.736 306.978 136.692 306.583C136.649 306.188 136.505 305.811 136.275 305.488C136.044 305.164 135.735 304.905 135.376 304.734L130.669 302.497C130.504 302.423 130.33 302.369 130.152 302.335C144.279 287.411 147.308 253.55 128.902 228.937Z" fill="#CCCCCC"/>
<path d="M85.4984 218.919C95.2047 220.46 103.949 225.665 109.925 233.461C115.902 241.257 118.655 251.048 117.616 260.813C117.403 263.05 120.901 263.035 121.113 260.813C122.113 250.288 119.094 239.773 112.662 231.379C106.229 222.984 96.8579 217.33 86.4279 215.551C84.227 215.177 83.2812 218.543 85.4984 218.919Z" fill="white"/>
<path d="M584.817 262.157C595.494 230.8 580.24 197.251 558.912 190.001C537.584 182.75 505.019 200.042 494.342 231.399C484.459 260.424 497.751 291.634 515.711 301.533C515.44 301.647 515.194 301.811 514.985 302.018L511.356 305.756C511.08 306.041 510.881 306.392 510.778 306.775C510.675 307.159 510.672 307.562 510.769 307.947C510.867 308.332 511.061 308.686 511.333 308.975C511.606 309.264 511.947 309.478 512.326 309.598L522.913 312.946C523.292 313.065 523.695 313.086 524.084 313.007C524.473 312.927 524.836 312.749 525.137 312.49C525.438 312.231 525.668 311.9 525.805 311.527C525.941 311.154 525.981 310.753 525.919 310.361L525.103 305.217C525.07 305.038 525.017 304.864 524.944 304.698C545.251 307.9 574.912 291.245 584.817 262.157Z" fill="#CCCCCC"/>
<path d="M568.538 220.725C572.756 229.595 573.405 239.744 570.35 249.078C567.296 258.412 560.772 266.218 552.125 270.885C550.158 271.974 552.148 274.849 554.102 273.766C563.355 268.638 570.326 260.204 573.617 250.156C576.907 240.107 576.274 229.187 571.844 219.586C570.908 217.561 567.595 218.685 568.538 220.725Z" fill="white"/>
<path d="M333.981 57.8541C332.53 24.7633 306.123 -0.957713 283.616 0.0273746C261.11 1.01246 237.054 28.9421 238.505 62.0329C239.848 92.6625 263.576 116.917 283.908 119.622C283.697 119.826 283.527 120.068 283.408 120.336L281.386 125.136C281.232 125.502 281.174 125.902 281.218 126.296C281.261 126.691 281.405 127.068 281.636 127.391C281.866 127.714 282.176 127.974 282.534 128.144C282.893 128.314 283.29 128.39 283.686 128.364L294.767 127.641C295.163 127.615 295.547 127.488 295.88 127.273C296.214 127.057 296.487 126.76 296.673 126.409C296.86 126.059 296.953 125.667 296.945 125.27C296.937 124.873 296.828 124.484 296.627 124.142L293.998 119.645C293.903 119.491 293.79 119.348 293.661 119.219C313.745 114.832 335.327 88.5503 333.981 57.8541Z" fill="#4C56C0"/>
<path d="M303.753 25.1598C310.907 31.893 315.201 41.1138 315.749 50.9187C316.296 60.7237 313.055 70.3645 306.695 77.851C305.258 79.5797 308.157 81.5352 309.585 79.8177C316.342 71.6816 319.77 61.2937 319.183 50.7373C318.596 40.1809 314.037 30.2365 306.419 22.8984C304.811 21.3514 302.133 23.6014 303.753 25.1598Z" fill="white"/>
<path d="M335.801 345.54C362.032 345.54 383.297 324.292 383.297 298.081C383.297 271.871 362.032 250.623 335.801 250.623C309.569 250.623 288.305 271.871 288.305 298.081C288.305 324.292 309.569 345.54 335.801 345.54Z" fill="#4C56C0"/>
<path d="M333.642 598.997H320.543C319.014 598.995 317.548 598.387 316.466 597.307C315.385 596.226 314.777 594.761 314.775 593.233V484.15C314.777 482.622 315.385 481.157 316.466 480.076C317.548 478.996 319.014 478.388 320.543 478.386H333.642C335.171 478.388 336.637 478.996 337.719 480.076C338.8 481.157 339.408 482.622 339.41 484.15V593.233C339.408 594.761 338.8 596.226 337.719 597.307C336.637 598.387 335.171 598.995 333.642 598.997V598.997Z" fill="#4C56C0"/>
<path d="M375.598 598.997H362.5C360.971 598.995 359.504 598.387 358.423 597.307C357.342 596.226 356.733 594.761 356.732 593.233V484.15C356.733 482.622 357.342 481.157 358.423 480.076C359.504 478.996 360.971 478.388 362.5 478.386H375.598C377.128 478.388 378.594 478.996 379.675 480.076C380.757 481.157 381.365 482.622 381.367 484.15V593.233C381.365 594.761 380.757 596.226 379.675 597.307C378.594 598.387 377.128 598.995 375.598 598.997V598.997Z" fill="#4C56C0"/>
<path d="M300.893 390.331L295.274 402.153C294.617 403.533 293.438 404.596 291.998 405.108C290.557 405.621 288.971 405.541 287.589 404.887L188.975 358.093C187.594 357.436 186.531 356.259 186.018 354.819C185.505 353.38 185.584 351.795 186.239 350.414L191.858 338.592C192.515 337.212 193.694 336.149 195.134 335.637C196.575 335.124 198.161 335.204 199.543 335.858L298.157 382.652C299.538 383.309 300.601 384.486 301.114 385.926C301.627 387.366 301.548 388.95 300.893 390.331Z" fill="#4C56C0"/>
<path d="M315.75 396.668C316.029 398.011 315.815 399.409 315.148 400.608L308.817 412.065C308.076 413.402 306.835 414.39 305.366 414.814C303.896 415.238 302.319 415.062 300.979 414.325L254.638 393.913C253.3 393.173 252.31 391.932 251.886 390.464C251.462 388.996 251.639 387.42 252.377 386.081L252.376 386.081L263.989 364.374C264.355 363.711 264.848 363.127 265.44 362.655C266.032 362.183 266.712 361.832 267.439 361.622C268.167 361.412 268.929 361.347 269.682 361.432C270.435 361.516 271.164 361.748 271.827 362.114L313.447 389.605C314.795 390.349 315.213 394.744 315.641 396.223C315.683 396.371 315.719 396.519 315.75 396.668Z" fill="#2F2E41"/>
<path d="M372.726 382.652L471.341 335.858C472.723 335.204 474.308 335.124 475.749 335.637C477.19 336.149 478.368 337.212 479.026 338.592L484.645 350.414C485.299 351.795 485.379 353.38 484.866 354.819C484.353 356.259 483.289 357.436 481.909 358.093L383.294 404.887C381.912 405.541 380.327 405.621 378.886 405.108C377.445 404.596 376.267 403.533 375.609 402.153L369.99 390.331C369.336 388.95 369.256 387.366 369.769 385.926C370.282 384.486 371.346 383.309 372.726 382.652Z" fill="#4C56C0"/>
<path d="M355.243 396.223C355.671 394.744 356.088 390.349 357.437 389.605L399.057 362.114C399.72 361.748 400.449 361.516 401.202 361.432C401.954 361.347 402.716 361.412 403.444 361.622C404.172 361.832 404.851 362.183 405.443 362.655C406.035 363.127 406.529 363.711 406.895 364.374L418.507 386.081L418.507 386.081C419.245 387.42 419.421 388.996 418.997 390.464C418.573 391.932 417.584 393.173 416.246 393.913L369.905 414.325C368.565 415.062 366.987 415.238 365.518 414.814C364.048 414.39 362.807 413.402 362.066 412.065L355.736 400.608C355.069 399.409 354.855 398.011 355.134 396.668C355.164 396.519 355.2 396.371 355.243 396.223Z" fill="#2F2E41"/>
<path d="M329.478 315.671L329.429 313.897C332.731 313.806 335.642 313.599 337.829 312.002C338.449 311.523 338.959 310.917 339.324 310.224C339.688 309.531 339.899 308.768 339.942 307.986C339.981 307.509 339.909 307.029 339.731 306.583C339.554 306.138 339.276 305.74 338.919 305.42C337.467 304.194 335.131 304.591 333.428 305.371L331.959 306.044L334.775 285.48L336.534 285.721L334.138 303.213C335.119 302.85 336.175 302.737 337.21 302.886C338.245 303.035 339.227 303.44 340.065 304.065C340.629 304.557 341.071 305.173 341.358 305.864C341.644 306.555 341.767 307.302 341.716 308.049C341.664 309.099 341.383 310.125 340.893 311.055C340.402 311.986 339.714 312.798 338.876 313.434C336.065 315.486 332.413 315.589 329.478 315.671Z" fill="#2F2E41"/>
<path d="M354.79 287.229H345.23V289.003H354.79V287.229Z" fill="#2F2E41"/>
<path d="M324.616 287.229H315.057V289.003H324.616V287.229Z" fill="#2F2E41"/>
<path d="M352.174 367.721H354.089C354.855 367.722 355.614 367.572 356.321 367.28C357.029 366.988 357.673 366.559 358.214 366.018C358.756 365.478 359.186 364.835 359.48 364.128C359.773 363.421 359.924 362.664 359.924 361.898C359.924 361.133 359.773 360.375 359.48 359.668C359.186 358.962 358.756 358.319 358.214 357.779C357.673 357.238 357.029 356.809 356.321 356.517C355.614 356.225 354.855 356.075 354.089 356.076H316.794C315.25 356.078 313.77 356.692 312.679 357.784C311.588 358.876 310.975 360.355 310.975 361.898C310.975 363.441 311.588 364.921 312.679 366.013C313.77 367.105 315.25 367.719 316.794 367.721H320.298C290.367 381.328 271.162 431.589 271.162 462.911C271.162 499.399 297.517 511.168 336.237 511.168C374.957 511.168 411.379 499.399 411.379 462.911C411.379 431.589 384.327 381.328 352.174 367.721Z" fill="#2F2E41"/>
<path d="M333.845 270.978C332.687 267.464 328.513 266.385 325.299 267.711C321.532 269.265 319.395 273.116 315.756 274.936C309.211 278.211 300.528 276.452 295.538 271.204C290.08 265.465 289.006 256.509 291.752 249.263C294.592 241.769 301.638 236.346 309.181 234.143C319.205 231.215 329.96 233.902 338.642 239.301C338.874 239.433 339.133 239.51 339.399 239.528C339.665 239.545 339.932 239.502 340.18 239.402C340.427 239.301 340.648 239.146 340.826 238.948C341.005 238.749 341.136 238.513 341.21 238.257C343.597 229.143 353.897 226.49 362.172 227.468C370.34 228.591 378.111 231.69 384.809 236.494C397.747 245.513 406.867 260.204 408.145 276.019C408.759 284.154 407.586 292.324 404.708 299.959C401.831 307.593 397.318 314.506 391.486 320.215C388.57 323.028 385.171 325.239 382.198 327.979C379.489 330.476 376.819 333.76 376.873 337.646C376.998 346.58 388.764 349.045 395.728 349.313C404.372 349.699 412.861 346.926 419.608 341.512C426.354 336.098 430.897 328.415 432.386 319.898C432.757 317.825 432.949 315.723 432.96 313.617C432.971 311.369 429.474 311.366 429.464 313.617C429.398 322.108 426.055 330.246 420.13 336.333C417.085 339.386 413.46 341.799 409.469 343.433C405.477 345.066 401.199 345.886 396.886 345.845C391.326 345.817 376.265 343.184 381.313 334.397C383.287 330.961 386.828 328.622 389.881 326.231C393.057 323.737 395.94 320.893 398.477 317.752C403.586 311.449 407.351 304.169 409.542 296.359C411.734 288.549 412.304 280.374 411.219 272.335C408.965 256.581 399.406 242.347 386.401 233.357C374.02 224.798 351.134 217.229 340.312 232.058C339.166 233.645 338.327 235.433 337.838 237.328L340.407 236.284C332.042 231.082 322.071 228.384 312.24 229.889C308.008 230.526 303.951 232.019 300.317 234.277C296.683 236.535 293.548 239.509 291.104 243.019C288.76 246.549 287.326 250.603 286.928 254.82C286.53 259.037 287.181 263.287 288.822 267.193C290.43 270.934 293.081 274.135 296.458 276.413C299.835 278.692 303.796 279.952 307.87 280.044C312.282 280.221 316.623 278.894 320.18 276.28C322.171 274.763 323.701 272.614 325.857 271.322C327.091 270.582 329.866 270.063 330.473 271.906C331.173 274.032 334.551 273.122 333.845 270.978V270.978Z" fill="#2F2E41"/>
<path d="M413.092 98.513C421.767 99.0591 430.19 101.652 437.669 106.078C445.148 110.505 451.471 116.64 456.119 123.979C457.421 126.06 459.122 128.347 458.22 130.908C457.906 131.89 457.268 132.736 456.41 133.309C455.552 133.882 454.525 134.146 453.496 134.06C450.838 133.737 449.122 131.138 448.794 128.648C448.423 125.823 450.417 123.606 452.88 122.556C458.897 119.992 464.967 123.955 469.868 127.118C481.036 134.325 493.32 140.844 506.852 141.665C519.372 142.425 532.798 137.52 539.762 126.671C540.981 124.772 537.956 123.019 536.743 124.907C529.837 135.667 515.875 139.531 503.735 137.868C496.5 136.727 489.514 134.358 483.08 130.861C479.743 129.131 476.507 127.213 473.336 125.197C470.319 123.093 467.121 121.261 463.779 119.722C458.207 117.435 450.829 117.614 446.937 122.88C443.305 127.793 446.112 135.972 452.186 137.354C457.942 138.663 462.985 133.253 461.8 127.597C461.194 124.704 459.014 121.873 457.326 119.508C452.255 112.38 445.649 106.48 437.993 102.242C430.338 98.0039 421.828 95.5358 413.092 95.0194C410.843 94.9083 410.849 98.4021 413.092 98.513L413.092 98.513Z" fill="#CCCCCC"/>
<path d="M126.954 153.384C118.279 152.838 109.856 150.245 102.377 145.819C94.8983 141.392 88.5756 135.257 83.9276 127.918C82.625 125.837 80.9245 123.55 81.8262 120.989C82.1404 120.007 82.7786 119.161 83.6366 118.588C84.4947 118.016 85.5217 117.751 86.5499 117.837C89.2086 118.16 90.9242 120.759 91.2517 123.249C91.6233 126.074 89.6289 128.291 87.1667 129.341C81.1497 131.905 75.0791 127.942 70.1779 124.779C59.0102 117.572 46.7267 111.053 33.1944 110.232C20.674 109.472 7.24777 114.377 0.283725 125.226C-0.934659 127.125 2.09045 128.878 3.30279 126.99C10.2094 116.23 24.1717 112.366 36.3117 114.029C43.5462 115.17 50.532 117.539 56.9662 121.036C60.303 122.766 63.5392 124.684 66.71 126.7C69.7273 128.804 72.9255 130.636 76.2669 132.175C81.8396 134.462 89.2168 134.283 93.1093 129.017C96.7408 124.104 93.9343 115.925 87.8604 114.543C82.1042 113.234 77.0615 118.644 78.2461 124.3C78.8521 127.193 81.0325 130.024 82.7202 132.389C87.7909 139.517 94.3974 145.417 102.053 149.655C109.708 153.893 118.218 156.361 126.954 156.878C129.204 156.989 129.198 153.495 126.954 153.384L126.954 153.384Z" fill="#CCCCCC"/>
<path d="M530.163 600H166.44C166.187 600 165.944 599.9 165.765 599.721C165.586 599.542 165.486 599.299 165.486 599.046C165.486 598.793 165.586 598.551 165.765 598.372C165.944 598.193 166.187 598.092 166.44 598.092H530.163C530.416 598.092 530.659 598.193 530.838 598.372C531.017 598.551 531.118 598.793 531.118 599.046C531.118 599.299 531.017 599.542 530.838 599.721C530.659 599.9 530.416 600 530.163 600Z" fill="#3F3D56"/>
</g>
<defs>
<clipPath id="clip0_1_51">
<rect width="588.312" height="600" fill="white"/>
</clipPath>
</defs>
</svg>
