<svg width="1041" height="600" viewBox="0 0 1041 600" fill="none" xmlns="http://www.w3.org/2000/svg">
<g clip-path="url(#clip0_1_73)">
<path d="M96.3396 468.695C95.5142 468.733 94.6972 468.516 93.9992 468.074C93.3011 467.632 92.7558 466.987 92.4371 466.224C92.1184 465.462 92.0417 464.62 92.2174 463.813C92.3931 463.006 92.8127 462.272 93.4193 461.711C93.5209 461.307 93.5938 461.017 93.6954 460.613C93.6591 460.525 93.6225 460.438 93.5857 460.35C92.7543 458.386 91.3611 456.711 89.5811 455.537C87.8011 454.362 85.7138 453.74 83.5812 453.748C81.4486 453.755 79.3659 454.393 77.5947 455.581C75.8236 456.769 74.4428 458.454 73.626 460.424C70.3615 468.287 66.2052 476.163 65.1819 484.477C64.7311 488.152 64.9213 491.877 65.7438 495.487C58.0764 478.76 54.0949 460.581 54.0693 442.18C54.0676 437.563 54.3241 432.949 54.8376 428.361C55.262 424.599 55.8507 420.864 56.6038 417.156C60.7133 397.035 69.5368 378.177 82.3495 362.129C88.5508 358.745 93.5659 353.542 96.7189 347.22C97.8612 344.947 98.6685 342.521 99.1158 340.017C98.4163 340.109 97.7052 340.167 97.0057 340.212C96.7878 340.224 96.5584 340.235 96.3405 340.247L96.2583 340.25C95.4895 340.285 94.7271 340.096 94.0629 339.708C93.3987 339.319 92.861 338.746 92.5146 338.059C92.1681 337.372 92.0277 336.599 92.1102 335.834C92.1927 335.069 92.4947 334.344 92.9796 333.746C93.2817 333.374 93.5839 333.003 93.8863 332.632C94.345 332.058 94.8152 331.496 95.2739 330.923C95.3268 330.868 95.3766 330.811 95.423 330.751C95.9506 330.097 96.478 329.455 97.0057 328.801C96.0427 327.306 94.7475 326.054 93.2212 325.143C87.9344 322.046 80.6407 324.191 76.8218 328.973C72.9915 333.755 72.269 340.465 73.5992 346.44C74.9074 351.524 77.0714 356.349 79.9985 360.707C79.7117 361.074 79.4135 361.429 79.1269 361.796C73.8859 368.536 69.318 375.773 65.4888 383.403C66.42 374.855 65.3086 366.207 62.2459 358.172C59.1419 350.684 53.3239 344.377 48.2004 337.903C42.0463 330.127 29.4268 333.521 28.3426 343.378C28.3321 343.474 28.3219 343.569 28.3119 343.664C29.0729 344.094 29.8178 344.549 30.5467 345.031C31.4623 345.643 32.1718 346.517 32.5821 347.539C32.9925 348.561 33.0846 349.683 32.8465 350.758C32.6083 351.834 32.0509 352.812 31.2473 353.565C30.4437 354.318 29.4314 354.81 28.3431 354.978L28.2316 354.995C28.5027 357.738 28.982 360.457 29.6651 363.127C31.6447 370.581 35.1428 377.546 39.9402 383.585C44.7376 389.624 50.7307 394.607 57.5439 398.221C57.9912 398.45 58.4271 398.68 58.8743 398.898C55.027 409.801 52.6138 421.158 51.6953 432.684C51.1753 439.484 51.206 446.315 51.787 453.11L51.7526 452.869C50.2846 445.313 46.2541 438.495 40.3419 433.567C31.5607 426.353 19.1545 423.697 9.68113 417.898C8.67433 417.252 7.50368 416.907 6.30724 416.904C5.11081 416.901 3.9385 417.241 2.92856 417.882C1.91863 418.524 1.11321 419.44 0.607294 420.525C0.101377 421.609 -0.0839399 422.815 0.0732125 424.001C0.0859179 424.086 0.0988362 424.17 0.111958 424.255C1.52415 424.83 2.89915 425.492 4.22896 426.239C4.98996 426.668 5.73489 427.124 6.46374 427.606C7.37937 428.218 8.08885 429.092 8.49923 430.114C8.9096 431.136 9.00173 432.258 8.76354 433.333C8.52535 434.408 7.96795 435.386 7.16437 436.139C6.3608 436.892 5.34853 437.385 4.26019 437.553L4.14866 437.57C4.06837 437.581 3.99958 437.593 3.91942 437.604C6.33235 443.366 9.71897 448.669 13.931 453.282C19.1342 458.865 25.423 463.327 32.4118 466.394C39.4006 469.46 46.942 471.067 54.5738 471.116H54.5853C56.657 480.119 59.6586 488.882 63.5419 497.264H95.5377C95.6525 496.909 95.7556 496.542 95.8589 496.186C92.8973 496.372 89.924 496.195 87.0054 495.659C89.3794 492.745 91.7532 489.809 94.1271 486.896C94.1801 486.842 94.2299 486.785 94.2762 486.724C95.4804 485.233 96.696 483.754 97.9001 482.263L97.9008 482.261C97.9649 477.691 97.4405 473.132 96.3405 468.696L96.3396 468.695Z" fill="#F2F2F2"/>
<path d="M490.397 497.697C490.398 497.871 490.364 498.044 490.297 498.205C490.23 498.366 490.133 498.513 490.009 498.636C489.886 498.759 489.74 498.857 489.578 498.924C489.417 498.99 489.244 499.024 489.07 499.024H1.4214C1.06945 499.024 0.731908 498.884 0.48304 498.635C0.234171 498.386 0.0943604 498.049 0.0943604 497.697C0.0943604 497.345 0.234171 497.007 0.48304 496.758C0.731908 496.509 1.06945 496.369 1.4214 496.369H489.07C489.244 496.369 489.417 496.403 489.578 496.469C489.74 496.536 489.886 496.634 490.009 496.757C490.133 496.88 490.23 497.027 490.297 497.188C490.364 497.349 490.398 497.522 490.397 497.697V497.697Z" fill="#CCCCCC"/>
<path d="M230.131 322.642C231.266 323.022 232.304 323.646 233.172 324.47C234.04 325.294 234.717 326.298 235.154 327.412C235.592 328.525 235.78 329.722 235.706 330.916C235.631 332.111 235.296 333.274 234.723 334.325L246.462 348.89L239.351 358.182L223.063 337.381C221.361 336.302 220.115 334.636 219.56 332.699C219.005 330.762 219.179 328.689 220.051 326.872C220.922 325.055 222.43 323.621 224.287 322.842C226.145 322.062 228.225 321.991 230.131 322.642V322.642Z" fill="#A0616A"/>
<path d="M235.38 362.313L228.75 345.819L241.015 337.109L246.747 347.384L255.119 353.094L266.238 362.969C269.252 360.494 292.38 341.959 299.778 349.839C300.677 350.724 301.374 351.793 301.821 352.973C302.268 354.153 302.455 355.415 302.367 356.674C301.906 362.672 295.544 367.708 295.304 367.894L281.263 381.078C280.739 381.971 275.221 391.155 268.914 392.754C268.014 393 267.074 393.057 266.151 392.921C265.229 392.785 264.344 392.459 263.554 391.964C249.201 383.15 240.024 374.477 236.654 366.605C236.053 365.232 235.626 363.791 235.38 362.313V362.313Z" fill="#2F2E41"/>
<path d="M228.431 578.178L217.631 578.682L210.546 537.268L226.485 536.523L228.431 578.178Z" fill="#A0616A"/>
<path d="M234.22 598.458L226.557 598.817L224.851 591.646L221.686 599.045L201.363 599.995C200.389 600.041 199.425 599.774 198.614 599.233C197.802 598.692 197.184 597.906 196.851 596.99C196.518 596.073 196.486 595.074 196.76 594.138C197.035 593.202 197.602 592.379 198.377 591.788L214.083 579.819L213.741 572.505L230.86 572.726L234.22 598.458Z" fill="#2F2E41"/>
<path d="M115.681 489.254L111.747 479.185L148.716 459.217L167.39 470.956L115.681 489.254Z" fill="#A0616A"/>
<path d="M98.322 501.23L95.5302 494.085L101.778 490.173L93.7555 489.543L86.3508 470.591C85.9959 469.683 85.9405 468.685 86.1929 467.743C86.4453 466.8 86.9923 465.964 87.7539 465.355C88.5154 464.745 89.4518 464.396 90.4263 464.356C91.4007 464.317 92.3623 464.59 93.1705 465.136L109.535 476.186L116.355 473.521L121.625 489.811L98.322 501.23Z" fill="#2F2E41"/>
<path d="M328.055 459.284C328.055 459.284 323.57 487.918 302.369 490.038C281.168 492.158 261.626 482.606 261.626 482.606L202.263 464.323C202.263 464.323 139.122 482.264 128.522 485.091C128.522 485.091 121.21 468.494 121.455 467.422C123.71 457.558 126.647 464.231 126.647 464.231L193.783 434.548C193.783 434.548 204.383 431.721 222.757 439.495C241.132 447.269 290.356 466.009 290.356 466.009L328.055 459.284Z" fill="#2F2E41"/>
<path d="M327.81 457.528C327.81 457.528 331.346 491.83 310.694 497.071C291.062 502.052 263.983 496.942 263.983 496.942L231.7 493.571C231.7 493.571 230.286 535.054 230.286 555.549C223.727 556.44 217.118 556.912 210.499 556.962C209.085 556.962 208.992 556.222 208.992 556.222L206.255 484.528C206.063 481.411 206.525 478.288 207.612 475.36C208.7 472.433 210.388 469.765 212.568 467.53C214.749 465.294 217.373 463.539 220.272 462.379C223.171 461.219 226.281 460.678 229.402 460.792C230.926 460.85 232.525 460.958 234.198 461.116C254.058 463.021 278.713 458.972 278.713 458.972L327.81 457.528Z" fill="#2F2E41"/>
<path d="M270.527 407.766C270.527 407.766 262.143 458.47 267.809 462.517C273.475 466.565 281.245 466.58 281.245 466.58L283.052 438.585L270.527 407.766Z" fill="#2F2E41"/>
<path d="M284.51 345.494L273.3 356.147C268.09 361.099 264.636 367.614 263.463 374.706C262.29 381.798 263.461 389.078 266.799 395.444L272.157 405.663L284.51 345.494Z" fill="#2F2E41"/>
<path d="M287.017 347.286L271.828 364.588C268.494 368.385 266.428 373.128 265.918 378.155V378.155C265.686 380.438 265.779 382.742 266.195 384.999L271.919 416.12L276.222 461.062C276.222 461.062 309.439 471.127 312.839 455.585C316.239 440.043 287.017 347.286 287.017 347.286Z" fill="#4C56C0"/>
<path d="M278.357 446.356L273.5 435.185L269.379 406.063C269.154 404.368 273.766 376.642 280.444 346.894L288.56 335.532L293.241 331.241L306.576 339.983C311.386 342.527 321.904 375.741 315.43 399.245C313.203 407.33 317.096 417.395 317.696 424.824L326.938 447.535L329.126 460.669L328.793 460.797C328.46 460.924 323.111 461.646 301.275 465.285C283.183 468.301 293.09 453.465 278.357 446.356Z" fill="#2F2E41"/>
<path d="M235.614 434.152C236.278 433.157 237.152 432.318 238.175 431.697C239.197 431.075 240.344 430.685 241.533 430.555C242.723 430.424 243.927 430.556 245.06 430.941C246.193 431.326 247.228 431.955 248.091 432.783L265.223 425.272L272.327 434.57L247.984 444.838C246.497 446.197 244.562 446.963 242.548 446.991C240.533 447.019 238.578 446.307 237.054 444.99C235.529 443.673 234.54 441.842 234.275 439.844C234.01 437.847 234.486 435.822 235.614 434.152V434.152Z" fill="#A0616A"/>
<path d="M275.272 439.486L257.618 441.561L252.427 427.441L263.845 424.602L271.55 418.02L283.994 409.877C282.395 406.319 270.572 379.141 280.115 374.066C281.204 373.43 282.419 373.038 283.674 372.916C284.93 372.794 286.197 372.945 287.389 373.359C293.056 375.377 296.248 382.836 296.364 383.117L305.407 400.123C306.131 400.863 313.547 408.596 313.436 415.102C313.439 416.035 313.247 416.957 312.874 417.812C312.501 418.667 311.955 419.435 311.269 420.067C299.002 431.609 288.227 438.192 279.747 439.382C278.266 439.601 276.762 439.636 275.272 439.486V439.486Z" fill="#2F2E41"/>
<path d="M286.742 329.811C298.411 328.413 306.712 317.609 305.283 305.679C303.853 293.75 293.235 285.213 281.567 286.611C269.898 288.009 261.597 298.813 263.026 310.742C264.456 322.672 275.074 331.209 286.742 329.811Z" fill="#A0616A"/>
<path d="M339.569 292.069C335.476 288.311 333.103 282.958 329.662 278.546C326.221 274.135 320.715 270.476 315.569 272.216C312.022 273.415 309.595 276.962 308.6 280.712C307.606 284.463 307.812 288.442 308.026 292.339C307.162 284.381 301.003 277.304 293.487 275.632C289.679 274.885 285.732 275.365 282.215 277.004C278.697 278.642 275.79 281.355 273.912 284.751C271.715 283.155 269.008 282.421 266.306 282.687C263.603 282.954 261.092 284.202 259.248 286.197C257.489 288.365 256.516 291.066 256.487 293.858C256.459 296.651 257.378 299.37 259.093 301.574C260.859 303.643 263.32 304.996 266.013 305.379C268.707 305.763 271.447 305.15 273.721 303.655L275.58 304.995C275.344 306.694 275.712 308.422 276.62 309.877C277.529 311.332 278.919 312.422 280.55 312.955C283.162 313.663 286.661 313.074 287.907 315.578C288.777 317.327 287.793 319.424 286.665 320.983C285.538 322.543 284.174 324.178 284.251 326.139C284.367 329.1 287.643 330.791 290.471 331.079C293.929 331.35 297.388 330.582 300.407 328.875C303.426 327.168 305.867 324.599 307.417 321.497C307.478 321.375 307.544 321.252 307.617 321.128C309.436 318.124 310.623 314.781 311.106 311.303C311.589 307.825 311.358 304.285 310.426 300.899C310.049 299.57 310.145 298.537 311.041 298.104C314.911 296.233 326.57 297.789 330.308 300.009C334.046 302.229 337.204 305.382 340.837 307.787C344.47 310.192 348.93 311.849 353.025 310.585C354.662 309.979 356.16 309.052 357.433 307.857C358.705 306.663 359.725 305.225 360.432 303.63C361.877 300.374 362.835 296.924 363.274 293.389C359.759 295.891 355.498 297.123 351.19 296.883C346.882 296.643 342.784 294.945 339.569 292.069V292.069Z" fill="#2F2E41"/>
<path d="M342.786 433.654L342.776 433.64L342.786 433.668V433.654Z" fill="#2F2E41"/>
<path d="M204.366 332.054C195.21 333.458 185.842 332.116 177.449 328.196C169.056 324.276 162.013 317.956 157.212 310.033C152.41 302.111 150.066 292.942 150.475 283.688C150.884 274.433 154.029 265.507 159.51 258.039C164.992 250.571 172.565 244.897 181.271 241.733C189.978 238.569 199.427 238.059 208.424 240.265C217.42 242.472 225.561 247.297 231.815 254.131C238.07 260.964 242.158 269.499 243.562 278.656C244.494 284.736 244.22 290.94 242.755 296.914C241.29 302.888 238.662 308.515 235.022 313.473C231.383 318.432 226.802 322.625 221.542 325.813C216.282 329.001 210.446 331.122 204.366 332.054V332.054ZM190.505 241.663C181.784 243 173.656 246.894 167.149 252.851C160.641 258.808 156.046 266.561 153.944 275.13C151.842 283.698 152.329 292.698 155.342 300.99C158.355 309.283 163.759 316.495 170.87 321.716C177.982 326.937 186.483 329.932 195.296 330.321C204.11 330.711 212.841 328.478 220.386 323.905C227.931 319.332 233.95 312.625 237.683 304.631C241.416 296.637 242.695 287.715 241.357 278.994C240.469 273.204 238.45 267.645 235.414 262.635C232.377 257.625 228.384 253.263 223.662 249.796C218.94 246.33 213.582 243.827 207.892 242.432C202.203 241.036 196.295 240.775 190.505 241.663V241.663Z" fill="#3F3D56"/>
<path d="M368.932 154.501C359.776 155.905 350.409 154.563 342.015 150.643C333.622 146.723 326.579 140.403 321.778 132.48C316.977 124.558 314.633 115.389 315.042 106.135C315.451 96.8797 318.595 87.9539 324.077 80.4861C329.558 73.0183 337.131 67.3437 345.838 64.18C354.544 61.0163 363.993 60.5056 372.99 62.7124C381.987 64.9193 390.127 69.7445 396.382 76.578C402.636 83.4115 406.724 91.9463 408.128 101.103C409.061 107.183 408.786 113.387 407.321 119.361C405.856 125.335 403.228 130.962 399.589 135.92C395.949 140.879 391.368 145.072 386.108 148.26C380.848 151.448 375.012 153.569 368.932 154.501V154.501ZM355.071 64.1099C346.351 65.4473 338.223 69.3407 331.715 75.2977C325.207 81.2547 320.612 89.0078 318.51 97.5766C316.409 106.145 316.895 115.145 319.908 123.437C322.921 131.73 328.325 138.942 335.437 144.163C342.549 149.384 351.049 152.379 359.863 152.768C368.676 153.158 377.408 150.925 384.952 146.352C392.497 141.78 398.517 135.072 402.25 127.078C405.982 119.084 407.261 110.162 405.924 101.441C404.13 89.747 397.765 79.2441 388.229 72.2432C378.692 65.2422 366.765 62.3166 355.071 64.1099V64.1099Z" fill="#3F3D56"/>
<path d="M558.728 260.616C549.571 262.02 540.204 260.677 531.811 256.758C523.417 252.838 516.375 246.517 511.573 238.595C506.772 230.672 504.428 221.504 504.837 212.249C505.246 202.994 508.39 194.069 513.872 186.601C519.354 179.133 526.926 173.458 535.633 170.295C544.339 167.131 553.789 166.62 562.785 168.827C571.782 171.034 579.922 175.859 586.177 182.693C592.432 189.526 596.519 198.061 597.924 207.218C598.856 213.298 598.582 219.502 597.116 225.476C595.651 231.45 593.024 237.076 589.384 242.035C585.744 246.993 581.164 251.186 575.904 254.374C570.644 257.563 564.807 259.683 558.728 260.616V260.616ZM544.866 170.225C536.146 171.562 528.018 175.455 521.51 181.412C515.003 187.369 510.407 195.123 508.306 203.691C506.204 212.26 506.691 221.26 509.703 229.552C512.716 237.844 518.12 245.057 525.232 250.278C532.344 255.499 540.844 258.493 549.658 258.883C558.472 259.273 567.203 257.04 574.748 252.467C582.293 247.894 588.312 241.187 592.045 233.192C595.778 225.198 597.056 216.277 595.719 207.556C593.926 195.862 587.561 185.359 578.024 178.358C568.487 171.357 556.56 168.431 544.866 170.225Z" fill="#3F3D56"/>
<path d="M783.725 93.1437C774.569 94.5479 765.202 93.2053 756.808 89.2856C748.415 85.3659 741.373 79.0452 736.571 71.1228C731.77 63.2003 729.426 54.0319 729.835 44.7771C730.244 35.5222 733.388 26.5965 738.87 19.1286C744.351 11.6608 751.924 5.98625 760.631 2.82256C769.337 -0.341121 778.786 -0.851844 787.783 1.35498C796.78 3.5618 804.92 8.38704 811.175 15.2205C817.429 22.054 821.517 30.5888 822.921 39.7457C823.854 45.8256 823.579 52.0297 822.114 58.0036C820.649 63.9776 818.022 69.6044 814.382 74.5629C810.742 79.5213 806.162 83.7143 800.901 86.9024C795.641 90.0905 789.805 92.2113 783.725 93.1437V93.1437ZM769.864 2.75249C761.144 4.08987 753.016 7.98325 746.508 13.9403C740 19.8973 735.405 27.6504 733.303 36.2192C731.202 44.788 731.688 53.7876 734.701 62.0799C737.714 70.3723 743.118 77.5849 750.23 82.8058C757.342 88.0267 765.842 91.0213 774.656 91.411C783.469 91.8006 792.201 89.5678 799.745 84.9949C807.29 80.422 813.31 73.7144 817.043 65.7203C820.775 57.7262 822.054 48.8046 820.717 40.0838C818.923 28.3895 812.558 17.8867 803.022 10.8857C793.485 3.88471 781.558 0.959097 769.864 2.75247V2.75249Z" fill="#3F3D56"/>
<path d="M997.003 174.389C987.847 175.793 978.48 174.45 970.086 170.531C961.693 166.611 954.65 160.29 949.849 152.368C945.048 144.445 942.703 135.277 943.113 126.022C943.522 116.767 946.666 107.841 952.147 100.374C957.629 92.9057 965.202 87.2312 973.909 84.0675C982.615 80.9038 992.064 80.3931 1001.06 82.5999C1010.06 84.8067 1018.2 89.632 1024.45 96.4655C1030.71 103.299 1034.79 111.834 1036.2 120.991C1038.08 133.27 1035.01 145.794 1027.66 155.808C1020.31 165.822 1009.28 172.506 997.003 174.389ZM983.142 83.9974C974.422 85.3348 966.294 89.2282 959.786 95.1852C953.278 101.142 948.683 108.895 946.581 117.464C944.48 126.033 944.966 135.032 947.979 143.325C950.992 151.617 956.396 158.83 963.508 164.051C970.62 169.272 979.12 172.266 987.934 172.656C996.747 173.046 1005.48 170.813 1013.02 166.24C1020.57 161.667 1026.59 154.959 1030.32 146.965C1034.05 138.971 1035.33 130.05 1033.99 121.329C1032.2 109.634 1025.84 99.1316 1016.3 92.1306C1006.76 85.1296 994.836 82.204 983.142 83.9974V83.9974Z" fill="#3F3D56"/>
<path d="M386.343 91.4668L391.685 89.5192C391.685 89.5192 387.85 95.4102 387.019 95.8761C387.106 96.9895 387.275 98.0949 387.526 99.1831C383.909 146.222 341.812 132.144 341.812 132.144C356.082 130.294 356.398 124.266 356.398 124.266C347.945 124.321 345.464 119.173 345.464 119.173C346.265 119.451 347.141 119.423 347.924 119.094C348.706 118.766 349.34 118.161 349.704 117.394C340.42 116.449 340.297 107.555 340.297 107.555C342.065 108.459 344.035 108.895 346.02 108.821C344.842 107.76 334.926 99.0137 339.202 93.0551C339.202 93.0551 347.065 103.132 363.421 101.639L364.489 101.249C364.18 100.484 363.981 99.679 363.897 98.858C363.426 95.7883 364.194 92.6572 366.032 90.1537C367.869 87.6502 370.626 85.9793 373.696 85.5085C381.412 84.3252 383.741 88.4809 383.741 88.4809L388.746 84.3287C388.635 84.3456 388.93 89.9418 386.343 91.4668Z" fill="#3F3D56"/>
<path d="M560.725 189.481C563.81 189.017 566.954 189.793 569.469 191.639C571.984 193.486 573.666 196.252 574.148 199.335L577.717 222.61C578.181 225.696 577.405 228.839 575.559 231.354C573.713 233.87 570.946 235.552 567.864 236.034L544.59 239.603C541.504 240.067 538.361 239.291 535.846 237.445C533.331 235.599 531.649 232.832 531.166 229.749L527.597 206.474C527.134 203.388 527.91 200.245 529.756 197.73C531.602 195.215 534.368 193.532 537.451 193.05L560.725 189.481M560.011 184.826L536.737 188.395C532.422 189.07 528.549 191.425 525.964 194.946C523.379 198.467 522.293 202.868 522.943 207.188L526.512 230.463C527.187 234.779 529.542 238.652 533.062 241.237C536.583 243.822 540.984 244.908 545.303 244.258L568.578 240.689C572.893 240.014 576.766 237.659 579.351 234.138C581.935 230.617 583.021 226.216 582.372 221.896L578.803 198.621C578.128 194.305 575.773 190.432 572.252 187.847C568.731 185.263 564.33 184.176 560.011 184.826V184.826Z" fill="#3F3D56"/>
<path d="M566.001 200.584C565.078 200.724 564.137 200.491 563.385 199.937C562.633 199.383 562.132 198.553 561.991 197.629C561.851 196.706 562.083 195.765 562.636 195.012C563.189 194.26 564.018 193.758 564.942 193.616C565.865 193.475 566.806 193.706 567.559 194.258C568.312 194.81 568.815 195.639 568.958 196.562C569.1 197.485 568.87 198.427 568.319 199.181C567.767 199.935 566.939 200.438 566.016 200.582L566.001 200.584Z" fill="#3F3D56"/>
<path d="M551.23 205.231C553.071 204.949 554.955 205.219 556.643 206.007C558.331 206.795 559.747 208.066 560.713 209.66C561.678 211.253 562.15 213.097 562.067 214.958C561.985 216.819 561.353 218.614 560.25 220.116C559.148 221.618 557.625 222.759 555.874 223.395C554.123 224.032 552.223 224.134 550.413 223.691C548.604 223.247 546.967 222.276 545.709 220.902C544.451 219.528 543.629 217.811 543.347 215.97C543.159 214.747 543.215 213.499 543.509 212.298C543.804 211.097 544.332 209.965 545.064 208.968C545.796 207.971 546.717 207.127 547.775 206.486C548.833 205.845 550.007 205.419 551.23 205.231ZM550.516 200.576C547.754 201 545.179 202.233 543.118 204.12C541.057 206.007 539.601 208.462 538.936 211.176C538.27 213.89 538.424 216.741 539.378 219.367C540.333 221.994 542.044 224.278 544.297 225.932C546.549 227.585 549.242 228.534 552.033 228.657C554.825 228.781 557.59 228.073 559.98 226.625C562.37 225.177 564.276 223.052 565.459 220.52C566.641 217.988 567.046 215.162 566.622 212.4V212.4C566.054 208.696 564.038 205.37 561.018 203.152C557.997 200.935 554.219 200.008 550.516 200.576V200.576Z" fill="#3F3D56"/>
<path d="M986.927 97.8573C979.956 98.9269 973.565 102.363 968.829 107.588C964.092 112.813 961.297 119.51 960.915 126.552C960.532 133.595 962.584 140.554 966.726 146.262C970.869 151.97 976.849 156.079 983.663 157.898C983.178 155.582 982.996 153.213 983.123 150.85C983.328 148.294 984.489 133.703 984.489 133.703C983.594 132.293 983.01 130.708 982.777 129.054C982.087 124.555 984.174 120.794 987.427 120.295C990.192 119.871 991.838 121.741 992.218 124.222C992.644 127 991.505 131.42 991.187 135.408C991.115 136.149 991.219 136.896 991.489 137.59C991.76 138.283 992.189 138.903 992.743 139.4C993.297 139.897 993.96 140.257 994.679 140.45C995.398 140.644 996.152 140.666 996.88 140.514C1002.63 139.633 1005.37 131.652 1004.03 122.896C1003.01 116.241 997.758 111.955 989.613 113.204C980.411 114.616 975.718 122.368 976.894 130.04C977.136 132.217 978.175 134.227 979.812 135.682C980.086 135.845 980.3 136.09 980.424 136.383C980.549 136.676 980.578 137 980.506 137.31C980.442 137.888 980.323 139.28 980.257 139.845C980.256 140.013 980.215 140.178 980.137 140.327C980.06 140.476 979.948 140.605 979.811 140.702C979.674 140.798 979.516 140.861 979.349 140.885C979.183 140.908 979.014 140.892 978.855 140.837C974.347 139.753 971.657 135.421 970.855 130.189C969.533 121.569 975.225 110.112 989.646 107.9C1001.23 106.123 1010.15 113.342 1011.53 122.342C1013.36 134.255 1008.09 144.163 998.335 145.66C995.055 146.162 991.707 144.859 990.342 143.015C990.342 143.015 989.652 150.279 989.481 151.692C989.133 154.103 988.442 156.451 987.429 158.666C991.794 159.259 996.235 158.906 1000.45 157.632C1004.67 156.358 1008.56 154.191 1011.87 151.28C1015.17 148.369 1017.81 144.781 1019.61 140.759C1021.41 136.737 1022.32 132.376 1022.28 127.971C1022.25 123.567 1021.26 119.221 1019.4 115.23C1017.54 111.238 1014.84 107.694 1011.48 104.838C1008.13 101.982 1004.2 99.8804 999.964 98.676C995.727 97.4715 991.281 97.1923 986.927 97.8574L986.927 97.8573Z" fill="#3F3D56"/>
<path d="M800.701 24.4997L759.811 18.4743C758.76 18.2669 757.67 18.4855 756.78 19.0822C755.89 19.6788 755.273 20.6045 755.066 21.6556L755.063 21.6733L749.024 62.6559C748.89 63.7626 749.185 64.8787 749.849 65.7745C750.512 66.6702 751.494 67.2775 752.592 67.4714L793.47 73.4951C794.552 73.6114 795.636 73.2967 796.487 72.6193C797.339 71.9418 797.889 70.956 798.019 69.8756L804.057 28.8929C804.221 27.8993 803.983 26.8815 803.396 26.0632C802.809 25.245 801.921 24.6935 800.928 24.5299C800.852 24.5176 800.777 24.5075 800.701 24.4997ZM764.794 60.9369L757.776 59.9026L760.991 38.0781L768.01 39.1124L764.794 60.9369ZM765.232 35.3128L765.182 35.3054C764.173 35.15 763.267 34.6011 762.662 33.7789C762.057 32.9567 761.803 31.9282 761.955 30.9187C762.107 29.9093 762.653 29.0013 763.473 28.3937C764.293 27.786 765.321 27.5283 766.331 27.6769C767.34 27.8256 768.25 28.3685 768.86 29.1867C769.471 30.005 769.732 31.0318 769.587 32.0422C769.441 33.0526 768.901 33.9642 768.085 34.5772C767.269 35.1902 766.243 35.4548 765.232 35.3128ZM790.447 64.717L783.428 63.6827L785.186 51.7495C785.607 48.8905 784.874 46.7867 782.334 46.4125C781.539 46.3018 780.729 46.4405 780.016 46.8096C779.303 47.1786 778.722 47.7599 778.353 48.4731C778.085 49.0001 777.916 49.5725 777.856 50.161L776.025 62.5918L769.006 61.5575L772.222 39.733L779.24 40.7673L778.793 43.8045C779.595 42.7932 780.655 42.0166 781.86 41.5564C783.066 41.0962 784.374 40.9694 785.646 41.1893C790.253 41.8682 793.291 45.419 792.326 51.9669L790.447 64.717Z" fill="#3F3D56"/>
<path fill-rule="evenodd" clip-rule="evenodd" d="M227.558 281.296C226.671 275.513 224.144 270.105 220.278 265.713C216.412 261.32 211.369 258.128 205.745 256.513C200.121 254.898 194.153 254.929 188.546 256.601C182.939 258.273 177.928 261.516 174.107 265.948C170.286 270.379 167.815 275.813 166.986 281.605C166.157 287.397 167.005 293.306 169.429 298.631C171.854 303.957 175.753 308.476 180.666 311.654C185.579 314.832 191.299 316.535 197.15 316.563L193.907 295.415L186.221 296.593L184.879 287.842L192.565 286.663L191.543 279.994C190.38 272.41 194.256 267.524 201.168 266.464C203.443 266.148 205.738 265.998 208.035 266.017L209.177 273.466L205.359 274.051C201.601 274.627 200.784 277.14 201.151 279.537L202.022 285.214L210.415 283.927L210.417 292.884L203.364 293.966L206.607 315.115C213.554 312.896 219.48 308.27 223.321 302.071C227.161 295.871 228.664 288.505 227.558 281.296L227.558 281.296Z" fill="#3F3D56"/>
<path d="M792.304 476.699L803.502 479.64L820.175 437.84L803.646 433.5L792.304 476.699Z" fill="#FFB6B6"/>
<path d="M788.841 488.279L823.279 497.323L823.394 496.887C824.327 493.332 823.81 489.552 821.957 486.378C820.103 483.204 817.065 480.896 813.51 479.962L813.509 479.962L808.472 473.537L795.482 475.228L792.475 474.438L788.841 488.279Z" fill="#2F2E41"/>
<path d="M849.714 485.078H861.292L866.801 440.413L849.712 440.414L849.714 485.078Z" fill="#FFB6B6"/>
<path d="M849.306 497.158L884.912 497.156V496.706C884.912 493.03 883.452 489.505 880.853 486.906C878.254 484.307 874.729 482.847 871.054 482.846H871.053L864.549 477.912L852.414 482.847L849.306 482.847L849.306 497.158Z" fill="#2F2E41"/>
<path d="M820.754 271.344C817.957 274.841 819.356 286.729 819.356 286.729C819.356 286.729 814.461 325.19 816.558 328.686C818.656 332.183 815.16 334.98 813.062 339.875C810.964 344.77 808.867 356.658 808.867 356.658C796.979 366.448 797.679 411.203 797.679 411.203L793.483 451.062C794.882 455.258 814.461 455.957 817.258 455.258C820.055 454.559 847.326 355.959 847.326 355.959C847.326 355.959 845.927 451.062 845.927 455.258C845.927 459.454 864.807 457.356 869.003 457.356C873.198 457.356 899.77 286.03 899.77 286.03V276.239L896.273 271.344C896.273 271.344 823.551 267.848 820.754 271.344Z" fill="#2F2E41"/>
<path d="M851.521 143.374C863.493 143.374 873.198 133.669 873.198 121.696C873.198 109.724 863.493 100.018 851.521 100.018C839.549 100.018 829.844 109.724 829.844 121.696C829.844 133.669 839.549 143.374 851.521 143.374Z" fill="#FFB6B6"/>
<path d="M822.398 286.81L822.28 286.644C815.965 277.803 825.462 256.559 826.895 253.479C825.194 252.927 823.737 251.802 822.772 250.297C821.807 248.791 821.394 246.997 821.603 245.221L822.22 239.972L822.864 234.824L818.253 230.212L818.24 230.097L815.586 206.878L811.728 191.455C810.274 185.625 810.398 179.513 812.087 173.746C813.776 167.98 816.969 162.767 821.338 158.642L830.256 157.226L841.094 146.782H858.572L864.565 152.508C876.348 162.167 879.145 157.971 892.43 176.153L882.918 201.216L888.235 238.183L888.238 244.873L891.008 247.951C892.005 249.059 892.73 250.386 893.124 251.824C893.519 253.262 893.572 254.773 893.279 256.235L892.915 258.056C894.323 258.66 895.565 259.592 896.538 260.774C897.511 261.957 898.186 263.356 898.507 264.853L899.48 269.392C900.312 270.49 905.805 277.814 905.805 279.817C905.805 280.117 905.583 280.408 905.107 280.73C901.364 283.265 880.674 288.433 871.517 284.768C861.763 280.868 822.99 286.719 822.599 286.779L822.398 286.81Z" fill="#3F3D56"/>
<path d="M811.385 198.873L829.409 195.345C836.075 205.3 839.653 232.52 839.653 232.52L859.581 273.849C860.806 274.593 861.811 275.649 862.495 276.908C863.18 278.167 863.518 279.586 863.476 281.018C863.434 282.451 863.013 283.847 862.256 285.063C861.499 286.28 860.433 287.275 859.166 287.946C857.9 288.617 856.478 288.94 855.046 288.882C853.614 288.825 852.223 288.389 851.014 287.619C849.805 286.849 848.822 285.772 848.165 284.499C847.508 283.225 847.2 281.8 847.272 280.369L821.282 231.402L811.385 198.873Z" fill="#FFB6B6"/>
<path d="M811.284 203.15L810.772 176.36L819.254 165.012C820.927 162.79 823.188 161.081 825.782 160.077C828.376 159.073 831.199 158.814 833.932 159.33V159.33C837.632 160.055 840.918 162.158 843.127 165.213C845.336 168.269 846.303 172.049 845.831 175.79C844.391 187.134 841.123 201.33 833.728 204.542L833.653 204.575L841.317 231.379L812.896 235.349L811.284 203.15Z" fill="#3F3D56"/>
<path d="M927.577 180.502C927.577 180.502 900.683 174.989 889.097 178.035L886.542 196.224L919.347 199.136L975.341 188.957C976.672 189.483 978.118 189.648 979.532 189.434C980.947 189.221 982.28 188.637 983.396 187.741C984.512 186.846 985.372 185.671 985.887 184.336C986.402 183.001 986.555 181.554 986.33 180.141C986.105 178.728 985.511 177.4 984.606 176.291C983.702 175.182 982.521 174.332 981.182 173.827C979.843 173.323 978.394 173.181 976.983 173.418C975.572 173.654 974.249 174.26 973.147 175.173L927.577 180.502Z" fill="#FFB6B6"/>
<path d="M895.012 200.483L868.38 197.546L858.218 187.675C856.23 185.729 854.825 183.267 854.163 180.566C853.501 177.864 853.608 175.031 854.472 172.387V172.387C855.666 168.811 858.174 165.822 861.488 164.024C864.802 162.226 868.675 161.754 872.324 162.703C883.388 165.589 894.459 162.897 896.693 170.644L900.681 169.339L926.868 174.328L927.15 203.025L895.012 200.483Z" fill="#3F3D56"/>
<path d="M826.934 107.452C829.368 103.687 833.935 101.177 838.363 101.882C838.775 99.0559 839.955 96.3971 841.774 94.195C843.592 91.9929 845.98 90.332 848.677 89.3931C851.374 88.4542 854.277 88.2732 857.07 88.87C859.863 89.4667 862.438 90.8183 864.516 92.7775C865.199 92.2964 865.995 91.9998 866.827 91.9166C867.658 91.8334 868.497 91.9663 869.262 92.3025C870.786 92.9955 872.112 94.0597 873.118 95.3979C875.659 98.5667 877.293 102.365 877.847 106.389C878.4 110.413 877.852 114.512 876.261 118.249C876.803 116.281 874.831 114.43 872.839 113.989C870.847 113.547 868.757 113.965 866.737 113.678C864.148 113.309 861.821 111.807 859.228 111.469C857.029 111.326 854.823 111.61 852.731 112.304C850.64 112.998 848.438 113.294 846.238 113.176C844.055 112.917 841.244 121.189 841.281 127.015C841.289 128.119 841.061 129.536 839.982 129.77C838.654 130.059 837.884 128.225 836.619 127.725C836.036 127.558 835.411 127.624 834.876 127.909C834.34 128.193 833.937 128.675 833.749 129.251C833.59 129.838 833.573 130.454 833.699 131.048C833.826 131.642 834.093 132.197 834.478 132.667C835.255 133.6 836.178 134.4 837.21 135.038L836.689 135.471C836.195 135.994 835.534 136.328 834.821 136.417C834.107 136.505 833.384 136.343 832.777 135.958C831.583 135.149 830.616 134.048 829.968 132.759C827.527 128.984 825.782 124.803 824.816 120.412C823.863 115.98 824.619 111.351 826.934 107.452V107.452Z" fill="#2F2E41"/>
<path d="M1008.8 479.524L1000.2 465.706L998.48 473.602C998.179 474.985 997.878 476.39 997.599 477.784C995.157 475.699 992.559 473.769 990.016 471.918C982.21 466.253 974.408 460.58 966.609 454.9L969.051 469.063C970.556 477.784 972.129 486.684 975.853 494.658C976.266 495.561 976.712 496.453 977.192 497.323H1013.48C1013.77 496.515 1013.97 495.677 1014.08 494.825C1014.09 494.77 1014.09 494.714 1014.09 494.658C1014.66 489.249 1011.67 484.152 1008.8 479.524Z" fill="#F0F0F0"/>
<path d="M1039.51 498.681L732.003 499.024C731.828 499.024 731.655 498.99 731.493 498.924C731.332 498.857 731.185 498.759 731.061 498.636C730.938 498.513 730.84 498.366 730.773 498.205C730.706 498.043 730.671 497.87 730.671 497.696C730.671 497.521 730.706 497.348 730.773 497.187C730.84 497.025 730.938 496.879 731.061 496.755C731.185 496.632 731.332 496.534 731.493 496.468C731.655 496.401 731.828 496.367 732.003 496.368L1039.51 496.025C1039.86 496.025 1040.2 496.165 1040.45 496.414C1040.7 496.663 1040.84 497.001 1040.84 497.353C1040.84 497.705 1040.7 498.043 1040.45 498.292C1040.2 498.541 1039.86 498.681 1039.51 498.681Z" fill="#CACACA"/>
</g>
<defs>
<clipPath id="clip0_1_73">
<rect width="1040.84" height="600" fill="white"/>
</clipPath>
</defs>
</svg>
