<svg width="895" height="600" viewBox="0 0 895 600" fill="none" xmlns="http://www.w3.org/2000/svg">
<g clip-path="url(#clip0_1_119)">
<path d="M894.669 318.891C894.669 440.253 817.791 543.659 710.11 583.006C693.729 589.003 676.82 593.444 659.606 596.269C612.251 604.04 563.699 599.628 518.518 583.449C410.156 544.426 332.716 440.671 332.767 318.831C332.767 163.642 458.556 37.7817 613.718 37.7817C672.358 37.6964 729.543 56.0524 777.189 90.2554C848.32 141.247 894.669 224.651 894.669 318.891Z" fill="#E5E5E5"/>
<path d="M710.11 583.006C693.729 589.003 676.82 593.444 659.606 596.269C612.252 604.04 563.699 599.628 518.518 583.449L531.493 531.358L532.276 528.232L558.754 528.334L691.771 528.811L693.474 533.846L710.11 583.006Z" fill="#2F2E41"/>
<path d="M244.045 0H0V276.3H244.045V0Z" fill="#E6E6E6"/>
<path d="M239.267 5.84537H4.35132V270.456H239.267V5.84537Z" fill="white"/>
<path d="M122.023 261.047C129.296 261.047 135.191 255.148 135.191 247.872C135.191 240.595 129.296 234.696 122.023 234.696C114.75 234.696 108.855 240.595 108.855 247.872C108.855 255.148 114.75 261.047 122.023 261.047Z" fill="#E6E6E6"/>
<path d="M119.798 99.5118H44.1655V107.253H119.798V99.5118Z" fill="#E6E6E6"/>
<path d="M158.316 122.71H44.1655V130.452H158.316V122.71Z" fill="#4C56C0"/>
<path d="M147.111 146.054H44.1655V153.796H147.111V146.054Z" fill="#E6E6E6"/>
<path d="M203.135 168.781H44.1655V176.523H203.135V168.781Z" fill="#4C56C0"/>
<path d="M175.375 190.426H45.818V198.167H175.375V190.426Z" fill="#E6E6E6"/>
<path d="M347.025 449.596C347.953 450.55 348.804 451.575 349.571 452.663L468.855 449.743L482.771 424.3L523.892 440.294L503.629 487.731C501.993 491.563 499.158 494.761 495.55 496.844C491.943 498.926 487.757 499.782 483.622 499.283L348.851 482.993C345.672 487.02 341.343 489.983 336.44 491.488C331.537 492.993 326.292 492.969 321.403 491.419C316.514 489.868 312.212 486.866 309.07 482.81C305.928 478.754 304.095 473.837 303.814 468.713C303.534 463.589 304.819 458.501 307.498 454.126C310.178 449.75 314.126 446.295 318.816 444.219C323.506 442.143 328.717 441.545 333.755 442.505C338.794 443.465 343.42 445.936 347.02 449.591L347.025 449.596Z" fill="#9F616A"/>
<path d="M507.575 304.314L563.399 286.009L579.794 263.511L659.581 268.235L671.295 294.489L713.839 314.604L707.301 436.097L696.116 549.799C638.599 519.999 531.258 542.718 530.318 543.088L507.575 304.314Z" fill="#4C56C0"/>
<path d="M519.509 468.763L462.728 446.032L462.97 445.021C463.213 443.999 487.38 342.955 490.589 326.717C493.931 309.801 506.144 305.123 506.663 304.933L507.042 304.793L529.513 311.637L539.382 389.224L519.509 468.763Z" fill="#4C56C0"/>
<path d="M642.11 544.801C643.441 544.769 644.773 544.843 646.092 545.021L725.054 455.516L715.869 428.013L755.55 408.717L776.54 455.835C778.236 459.642 778.652 463.896 777.726 467.959C776.799 472.022 774.581 475.675 771.403 478.369L667.834 566.171C668.623 571.242 667.851 576.432 665.62 581.053C663.389 585.673 659.805 589.504 655.344 592.037C650.884 594.57 645.758 595.683 640.65 595.231C635.541 594.778 630.692 592.779 626.746 589.501C622.8 586.223 619.945 581.821 618.561 576.88C617.177 571.939 617.329 566.694 618.996 561.841C620.664 556.989 623.769 552.759 627.898 549.715C632.027 546.671 636.984 544.957 642.11 544.801V544.801Z" fill="#9F616A"/>
<path d="M718.751 464.228L685.812 386.705L698.66 332.706L712.502 315.208C713.516 314.774 714.608 314.556 715.711 314.566C716.814 314.576 717.902 314.815 718.908 315.268C724.016 317.323 728.358 323.624 731.829 333.995L762.699 421.973L718.751 464.228Z" fill="#4C56C0"/>
<path d="M547.857 234.785V176.339C547.823 166.055 549.814 155.864 553.716 146.349C557.618 136.834 563.355 128.182 570.599 120.885C577.843 113.589 586.453 107.791 595.936 103.824C605.42 99.8569 615.591 97.7975 625.87 97.7634C636.149 97.7293 646.334 99.7213 655.844 103.626C665.353 107.53 674.001 113.27 681.293 120.518C688.586 127.767 694.38 136.381 698.345 145.87C702.31 155.359 704.368 165.536 704.402 175.821C704.403 175.993 704.403 176.166 704.402 176.339V234.785C704.399 237.574 703.29 240.248 701.319 242.22C699.348 244.192 696.675 245.302 693.888 245.305H558.371C555.584 245.302 552.911 244.192 550.94 242.22C548.969 240.248 547.86 237.574 547.857 234.785V234.785Z" fill="#2F2E41"/>
<path d="M610.045 243.943C641.739 243.943 667.431 218.236 667.431 186.524C667.431 154.813 641.739 129.106 610.045 129.106C578.351 129.106 552.659 154.813 552.659 186.524C552.659 218.236 578.351 243.943 610.045 243.943Z" fill="#9F616A"/>
<path d="M529.34 181.015C529.358 164.59 535.888 148.843 547.495 137.229C559.103 125.614 574.841 119.081 591.257 119.063H602.94C619.356 119.081 635.094 125.615 646.702 137.229C658.309 148.843 664.839 164.59 664.857 181.015V182.184H640.167L631.746 158.588L630.062 182.184H617.304L613.055 170.28L612.204 182.184H529.34V181.015Z" fill="#2F2E41"/>
<path d="M604.398 251.878C603.239 250.307 602.547 248.441 602.401 246.494C602.255 244.547 602.662 242.599 603.575 240.873C615.954 217.313 633.287 173.778 610.281 146.929L608.631 145.002H675.426V245.341L614.748 256.053C614.134 256.162 613.511 256.217 612.888 256.218C611.231 256.218 609.598 255.825 608.123 255.071C606.648 254.316 605.373 253.223 604.402 251.88L604.398 251.878Z" fill="#2F2E41"/>
<path d="M121.811 21.5194C116.272 21.5191 110.858 23.1621 106.253 26.2405C101.648 29.3189 98.0589 33.6945 95.9392 38.814C93.8195 43.9336 93.2647 49.567 94.3449 55.002C95.425 60.437 98.0917 65.4295 102.008 69.3481C105.924 73.2667 110.913 75.9354 116.345 77.0167C121.777 78.0981 127.407 77.5435 132.524 75.4232C137.641 73.3028 142.014 69.7119 145.091 65.1046C148.169 60.4972 149.811 55.0803 149.812 49.5389V49.5374C149.812 45.858 149.087 42.2147 147.68 38.8154C146.273 35.4161 144.21 32.3274 141.61 29.7257C139.01 27.124 135.923 25.0602 132.525 23.6521C129.128 22.2441 125.487 21.5194 121.809 21.5194H121.811ZM121.811 29.924C123.472 29.924 125.096 30.417 126.477 31.3405C127.859 32.264 128.935 33.5766 129.571 35.1123C130.207 36.6481 130.373 38.338 130.049 39.9683C129.725 41.5987 128.925 43.0962 127.75 44.2717C126.576 45.4471 125.079 46.2475 123.45 46.5718C121.82 46.8961 120.131 46.7297 118.596 46.0936C117.061 45.4575 115.749 44.3802 114.826 42.9981C113.903 41.616 113.411 39.991 113.411 38.3287C113.411 36.0997 114.296 33.9619 115.871 32.3857C117.446 30.8096 119.583 29.9241 121.811 29.924V29.924ZM121.811 70.3878C118.492 70.3726 115.227 69.5476 112.3 67.9842C109.372 66.4208 106.869 64.1664 105.009 61.4164C105.144 55.8128 116.21 52.7283 121.811 52.7283C127.411 52.7283 138.477 55.8128 138.612 61.4164C136.75 64.1643 134.247 66.4173 131.32 67.9804C128.393 69.5435 125.129 70.3698 121.811 70.3878Z" fill="#4C56C0"/>
<path d="M122.136 252.922C133.672 231.77 161.308 218.375 183.914 230.449C194.089 235.883 202.178 245.495 204.746 256.856C207.726 270.054 201.447 282.638 194.966 293.726C191.448 299.744 187.593 305.64 184.681 311.988C181.666 318.561 179.512 326.159 181.781 333.31C183.825 339.753 188.948 344.439 194.559 347.883C200.751 351.54 207.337 354.483 214.192 356.657C228.302 361.352 243.185 363.279 258.025 362.331C265.4 361.83 272.713 360.647 279.871 358.797C287.484 356.855 294.956 354.393 302.583 352.494C315.316 349.329 329.834 347.756 341.908 354.112C353.638 360.29 358.888 373.21 360.511 385.779C363.51 408.988 354.312 433.073 337.706 449.327C329.739 457.124 319.714 463.567 308.794 466.202C299.266 468.502 287.032 468.355 279.45 461.229C270.989 453.275 272.98 440.521 279.699 432.129C288.277 421.423 302.808 418.851 315.775 418.59C330.526 418.294 345.263 420.492 360.005 419.125C367.201 418.565 374.262 416.861 380.922 414.077C386.777 411.5 392.117 407.884 396.685 403.404C405.786 394.557 411.924 382.771 414.977 370.516C418.652 355.779 417.851 340.291 414.998 325.489C413.477 317.856 411.519 310.317 409.134 302.909C408.149 299.782 403.215 301.12 404.208 304.267C412.994 332.143 417.892 364.376 400.917 390.258C393.892 401.234 382.948 409.116 370.316 412.298C355.624 415.951 340.208 414.145 325.271 413.602C311.069 413.085 295.474 413.643 283.299 421.919C273.312 428.708 266.326 441.62 269.345 453.81C272.256 465.565 283.547 471.528 294.839 472.446C306.688 473.412 318.347 469.433 328.298 463.212C348.997 450.27 362.761 427.508 365.641 403.376C367.142 390.802 365.614 377.258 359.915 365.845C356.912 359.667 352.238 354.455 346.424 350.8C340.626 347.244 333.929 345.493 327.203 344.874C311.923 343.466 297.242 348.715 282.747 352.731C275.342 354.88 267.752 356.33 260.076 357.061C252.627 357.678 245.135 357.556 237.709 356.696C230.341 355.826 223.08 354.214 216.036 351.883C209.133 349.748 202.524 346.758 196.363 342.984C190.927 339.506 186.225 334.524 185.958 327.736C185.668 320.375 189.377 313.489 192.905 307.284C199.875 295.025 208.485 283.034 210.303 268.683C211.895 256.13 206.846 243.757 198.128 234.803C193.759 230.258 188.499 226.665 182.678 224.249C176.856 221.832 170.599 220.645 164.298 220.76C151.363 221.131 138.978 226.759 129.464 235.402C124.745 239.692 120.775 244.739 117.715 250.335C116.139 253.224 120.548 255.806 122.126 252.915L122.136 252.922Z" fill="#3F3D56"/>
</g>
<defs>
<clipPath id="clip0_1_119">
<rect width="894.669" height="600" fill="white"/>
</clipPath>
</defs>
</svg>
